<svg id="Layer_1" data-name="Layer 1" xmlns="http://www.w3.org/2000/svg" viewBox="0 0 202.33 62"><defs><style>.cls-1{fill:#626262;}.cls-2{fill:#fff;}</style></defs><title>bbc</title><path id="Carrés" class="cls-1" d="M38.52,13.14h37.9V48.86H38.52Zm43.7,35.71h37.9V13.14H82.22Zm43.7,0h37.9V13.14h-37.9Z"/><path id="B" class="cls-2" d="M105.5,30.19A5.7,5.7,0,0,0,108.78,25s.5-6.12-7.61-6.87h-9V43.84h10.32s8.62,0,8.62-7.24C111.1,36.6,111.3,31.65,105.5,30.19Zm-8.77-8h3.68c3.82.2,3.68,3,3.68,3,0,3.54-4.22,3.59-4.22,3.59H96.73Zm9.66,14.05c0,3.88-4.83,3.65-4.83,3.65H96.73v-7h4.83C106.53,32.83,106.39,36.22,106.39,36.22Z"/><path id="B-2" data-name="B" class="cls-2" d="M61.81,30.19A5.7,5.7,0,0,0,65.09,25s.5-6.12-7.61-6.87h-9V43.84H58.8s8.62,0,8.62-7.24C67.42,36.6,67.62,31.65,61.81,30.19Zm-8.77-8h3.68c3.82.2,3.68,3,3.68,3,0,3.54-4.22,3.59-4.22,3.59H53ZM62.7,36.22c0,3.88-4.83,3.65-4.83,3.65H53v-7h4.83C62.85,32.83,62.7,36.22,62.7,36.22Z"/><path id="C" class="cls-2" d="M156.08,20v4.74a21.63,21.63,0,0,0-9.74-2.9s-9.54-.19-10,9.15c0,0-.34,8.59,9.86,9.07,0,0,4.28.52,10.09-3.19V41.8a20.46,20.46,0,0,1-16.81,1.06A13,13,0,0,1,131.62,31s-.32-9.35,9.8-12.45A18.17,18.17,0,0,1,149,18,27.48,27.48,0,0,1,156.08,20Z"/></svg>